<svg viewBox="0 0 24 24" xmlns="http://www.w3.org/2000/svg" xmlns:xlink="http://www.w3.org/1999/xlink" width="24.000000" height="24.000000" fill="none">
	<rect id="Cart1" width="24.000000" height="24.000000" x="0.000000" y="0.000000" fill="rgb(255,255,255)" fill-opacity="0" />
	<path id="Vector" d="M8.25 20.25C7.83579 20.25 7.5 19.9142 7.5 19.5C7.5 19.0858 7.83579 18.75 8.25 18.75C8.66421 18.75 9 19.0858 9 19.5C9 19.9142 8.66421 20.25 8.25 20.25Z" stroke="rgb(255,255,255)" stroke-linecap="round" stroke-linejoin="round" stroke-width="1.5" />
	<path id="Vector" d="M18.75 20.25C18.3358 20.25 18 19.9142 18 19.5C18 19.0858 18.3358 18.75 18.75 18.75C19.1642 18.75 19.5 19.0858 19.5 19.5C19.5 19.9142 19.1642 20.25 18.75 20.25Z" stroke="rgb(255,255,255)" stroke-linecap="round" stroke-linejoin="round" stroke-width="1.5" />
	<path id="Vector" d="M2.25 3.75L5.25 3.75L7.5 16.5L19.5 16.5" fill-rule="nonzero" stroke="rgb(255,255,255)" stroke-linecap="round" stroke-linejoin="round" stroke-width="1.5" />
	<path id="Vector" d="M7.5 12.5L19.1925 12.5C19.2792 12.5001 19.3633 12.4701 19.4304 12.4151C19.4975 12.3601 19.5434 12.2836 19.5605 12.1986L20.9105 5.44859C20.9214 5.39417 20.92 5.338 20.9066 5.28414C20.8931 5.23029 20.8679 5.18009 20.8327 5.13717C20.7975 5.09426 20.7532 5.05969 20.703 5.03597C20.6528 5.01225 20.598 4.99996 20.5425 5L6 5" fill-rule="nonzero" stroke="rgb(255,255,255)" stroke-linecap="round" stroke-linejoin="round" stroke-width="1.5" />
</svg>
