<svg viewBox="0 0 34 34" xmlns="http://www.w3.org/2000/svg" xmlns:xlink="http://www.w3.org/1999/xlink" width="34.000000" height="34.000000" fill="none" customFrame="#000000">
	<defs>
		<clipPath id="clipPath_13">
			<rect width="24.000000" height="24.000000" x="5.000000" y="5.000000" fill="rgb(255,255,255)" />
		</clipPath>
	</defs>
	<rect id="Fill Eye" width="34.000000" height="34.000000" x="0.000000" y="0.000000" />
	<circle id="Ellipse 13" cx="17" cy="17" r="17" fill="rgb(255,255,255)" />
	<g id="Quick View" clip-path="url(#clipPath_13)" customFrame="url(#clipPath_13)">
		<rect id="Quick View" width="24.000000" height="24.000000" x="5.000000" y="5.000000" fill="rgb(255,255,255)" fill-opacity="0" />
		<g id="Group">
			<path id="Vector" d="M26.257 18.038C24.764 19.987 21.182 24 17 24C12.818 24 9.23601 19.987 7.74301 18.038C7.51239 17.7411 7.38721 17.3759 7.38721 17C7.38721 16.6241 7.51239 16.2589 7.74301 15.962C9.23601 14.013 12.818 10 17 10C21.182 10 24.764 14.013 26.257 15.962C26.731 16.582 26.731 17.419 26.257 18.038Z" fill-rule="nonzero" stroke="rgb(0,0,0)" stroke-linecap="round" stroke-linejoin="round" stroke-width="1.5" />
			<path id="Vector" d="M17 20C15.3431 20 14 18.6569 14 17C14 15.3431 15.3431 14 17 14C18.6569 14 20 15.3431 20 17C20 18.6569 18.6569 20 17 20Z" stroke="rgb(0,0,0)" stroke-linecap="round" stroke-linejoin="round" stroke-width="1.5" />
		</g>
	</g>
</svg>
