<svg viewBox="0 0 34 34" xmlns="http://www.w3.org/2000/svg" xmlns:xlink="http://www.w3.org/1999/xlink" width="34.000000" height="34.000000" fill="none" customFrame="#000000">
	<defs>
		<clipPath id="clipPath_12">
			<rect width="24.000000" height="24.000000" x="5.000000" y="5.000000" fill="rgb(255,255,255)" />
		</clipPath>
	</defs>
	<rect id="Fill Heart" width="34.000000" height="34.000000" x="0.000000" y="0.000000" />
	<circle id="Ellipse 12" cx="17" cy="17" r="17" fill="rgb(255,255,255)" />
	<g id="heart small" clip-path="url(#clipPath_12)" customFrame="url(#clipPath_12)">
		<rect id="heart small" width="24.000000" height="24.000000" x="5.000000" y="5.000000" fill="rgb(255,255,255)" fill-opacity="0" />
		<path id="Vector" d="M9 13.8859C9 15.6185 9.7 19.7306 16.5904 23.8873C16.7138 23.961 16.8555 24 17 24C17.1445 24 17.2862 23.961 17.4096 23.8873C24.3 19.7306 25 15.6185 25 13.8859C25 11.7396 23.2088 10 21 10C18.7912 10 17 12.3551 17 12.3551C17 12.3551 15.2088 10 13 10C10.7912 10 9 11.7396 9 13.8859Z" fill-rule="nonzero" stroke="rgb(0,0,0)" stroke-linecap="round" stroke-linejoin="round" stroke-width="1.5" />
	</g>
</svg>
